<?xml version="1.0" standalone="no"?>
<!DOCTYPE svg PUBLIC "-//W3C//DTD SVG 20010904//EN"
 "http://www.w3.org/TR/2001/REC-SVG-20010904/DTD/svg10.dtd">
<svg version="1.0" xmlns="http://www.w3.org/2000/svg"
 width="1080.000000pt" height="1080.000000pt" viewBox="0 0 1080.000000 1080.000000"
 preserveAspectRatio="xMidYMid meet">
<metadata>
Created by potrace 1.14, written by Peter Selinger 2001-2017
</metadata>
<g transform="translate(0.000000,1080.000000) scale(0.100000,-0.100000)"
fill="#000000" stroke="none">
<path d="M6795 10149 c-44 -10 -113 -38 -132 -54 -7 -5 -30 -23 -51 -40 -86
-66 -141 -177 -148 -299 -8 -147 51 -270 178 -371 21 -17 106 -55 123 -55 21
0 24 -23 30 -235 3 -104 8 -276 11 -381 l6 -191 -28 -8 c-16 -5 -31 -9 -34
-10 -32 -8 -62 -22 -98 -46 -24 -16 -47 -29 -53 -29 -5 0 -12 -7 -15 -15 -4
-8 -10 -15 -15 -15 -10 0 -72 -61 -109 -109 l-25 -31 -74 45 c-40 25 -74 45
-76 45 -8 0 -110 66 -113 73 -2 4 -8 7 -14 7 -5 0 -29 14 -54 30 -24 17 -44
27 -44 23 0 -4 -4 -3 -8 2 -4 6 -34 27 -67 46 -33 20 -143 86 -243 147 -101
62 -186 112 -189 112 -3 0 -19 10 -36 23 -35 24 -64 43 -87 53 -8 4 -26 15
-40 24 -14 10 -41 27 -60 37 -40 23 -305 183 -360 218 -35 22 -36 25 -31 67 6
37 -2 132 -13 163 -2 6 -4 15 -5 20 -2 6 -9 17 -17 26 -8 9 -12 18 -9 21 8 8
-113 128 -130 128 -8 0 -15 4 -15 9 0 4 -24 16 -52 25 -141 43 -271 16 -377
-79 -30 -27 -83 -98 -87 -117 -1 -5 -2 -9 -4 -10 -2 -3 -4 -12 -20 -76 -26
-107 16 -242 104 -328 112 -109 266 -138 411 -77 22 10 43 21 46 26 4 5 43
-14 88 -42 46 -28 87 -51 92 -51 5 0 9 -4 9 -8 0 -4 12 -13 28 -19 29 -13 64
-34 72 -44 3 -3 10 -8 16 -10 5 -2 99 -58 207 -124 109 -66 205 -125 215 -130
98 -58 196 -117 272 -165 68 -43 103 -63 160 -95 58 -33 84 -49 90 -56 3 -4
23 -16 45 -28 22 -12 54 -30 70 -41 17 -11 39 -24 50 -30 11 -6 49 -28 85 -50
l65 -39 1 -88 c1 -105 9 -160 34 -223 l19 -47 -184 -184 c-1976 -1976 -2184
-2182 -2202 -2168 -10 7 -28 22 -40 33 -13 11 -23 16 -23 12 0 -4 -12 1 -28
12 -31 22 -128 57 -187 67 -85 15 -235 3 -300 -25 -19 -8 -132 -60 -148 -68
-4 -2 -259 249 -568 557 -465 464 -559 564 -554 581 3 11 10 20 14 20 7 0 42
80 56 128 5 19 14 79 17 127 2 28 -14 126 -29 170 -54 164 -211 304 -381 340
-175 36 -345 -16 -473 -144 -63 -64 -124 -167 -136 -230 -2 -14 -6 -28 -9 -32
-2 -4 -5 -48 -5 -96 0 -95 24 -192 64 -261 72 -122 189 -210 328 -246 68 -18
222 -14 271 7 21 9 38 13 38 10 0 -3 7 0 15 7 12 10 105 -78 586 -560 l571
-573 -23 -45 c-12 -25 -22 -52 -22 -59 0 -7 -4 -13 -8 -13 -4 0 -13 -26 -20
-57 -7 -32 -14 -65 -16 -73 -5 -24 -4 -173 2 -202 4 -21 0 -30 -17 -39 -13 -7
-25 -12 -28 -11 -3 1 -61 -17 -130 -40 -69 -23 -127 -43 -130 -43 -3 -1 -12
-4 -20 -8 -8 -3 -233 -78 -500 -167 -267 -89 -492 -164 -500 -167 -8 -4 -17
-7 -20 -8 -3 0 -63 -20 -134 -44 l-130 -44 -32 36 c-239 260 -667 88 -649
-261 3 -64 32 -157 58 -188 55 -66 120 -122 150 -128 7 -2 26 -9 42 -16 32
-14 183 -19 223 -8 12 4 46 20 74 35 80 43 137 113 173 213 l20 55 180 61 c99
34 187 64 195 67 19 7 122 41 133 43 4 1 8 2 10 4 1 1 9 3 17 5 8 2 35 11 60
20 25 9 52 18 60 20 8 2 29 9 45 16 17 7 35 13 40 14 6 0 17 4 25 8 16 6 168
57 185 62 6 1 17 5 25 8 12 5 190 65 681 230 3 1 40 -29 81 -68 46 -42 103
-83 145 -103 37 -19 76 -38 85 -43 10 -5 35 -12 55 -15 21 -3 41 -8 44 -10 3
-1 6 -43 7 -91 3 -100 3 -94 -1 -188 -1 -38 2 -76 7 -82 5 -7 5 -13 0 -13 -5
0 -9 -108 -9 -240 0 -132 4 -240 9 -240 5 0 4 -6 -1 -12 -5 -7 -9 -30 -8 -51
1 -36 0 -38 -42 -48 -24 -6 -43 -16 -43 -22 0 -6 -3 -8 -6 -4 -8 8 -80 -42
-123 -84 -45 -46 -89 -131 -107 -204 -5 -24 -6 -130 0 -165 13 -88 84 -203
159 -257 29 -20 55 -42 59 -48 4 -5 8 -7 8 -3 0 4 17 0 37 -9 50 -20 76 -25
153 -26 85 -1 151 18 220 62 30 19 58 34 62 33 5 -1 8 1 8 5 0 5 14 24 31 43
27 31 93 150 83 150 -2 0 1 12 7 28 10 24 14 145 6 182 -11 52 -34 106 -56
133 -8 9 -10 17 -5 17 15 0 -124 127 -153 140 l-28 13 0 498 c0 275 3 499 7
499 5 0 10 0 13 0 16 0 123 54 167 84 91 60 183 165 211 239 8 21 -1 22 142
-8 66 -14 131 -28 145 -30 118 -22 147 -28 160 -32 8 -3 25 -7 38 -9 20 -2 48
-8 152 -29 14 -3 45 -10 70 -15 25 -6 59 -12 75 -15 17 -3 41 -7 55 -10 14 -3
45 -10 70 -15 25 -4 59 -11 75 -15 17 -4 39 -8 50 -10 11 -2 32 -6 48 -9 15
-3 37 -8 50 -10 12 -3 33 -8 47 -11 14 -3 36 -8 50 -10 14 -2 46 -8 73 -14 26
-6 64 -14 85 -17 20 -3 44 -7 52 -10 8 -3 26 -8 40 -10 14 -3 50 -10 80 -16
30 -6 62 -12 70 -13 8 -1 40 -7 70 -13 30 -7 66 -14 80 -16 14 -3 25 -5 25 -6
0 -1 9 -3 20 -5 11 -2 34 -6 50 -10 17 -3 82 -16 147 -29 64 -13 120 -26 125
-29 6 -4 8 -30 7 -58 -7 -113 43 -248 124 -335 49 -53 168 -137 183 -129 4 3
10 1 13 -4 11 -16 137 -34 206 -28 l68 6 33 -82 c18 -45 39 -93 46 -107 7 -14
13 -29 13 -33 0 -5 16 -48 36 -95 20 -48 39 -96 44 -107 4 -11 17 -41 29 -66
11 -25 21 -53 21 -62 0 -9 4 -18 9 -21 5 -3 11 -16 15 -29 3 -13 13 -41 23
-63 9 -21 17 -41 18 -44 1 -3 6 -16 12 -30 6 -14 20 -48 31 -75 l20 -51 -29
-27 c-16 -15 -29 -30 -29 -33 0 -4 -8 -14 -18 -23 -24 -21 -69 -115 -81 -169
-16 -74 -3 -199 26 -255 16 -32 16 -32 -57 -108 -19 -20 -105 -109 -190 -199
-416 -437 -450 -471 -469 -465 -102 32 -199 23 -293 -27 -87 -46 -163 -144
-183 -233 -21 -91 -3 -208 41 -281 24 -40 76 -98 95 -107 8 -4 28 -15 44 -25
98 -60 232 -64 345 -10 148 71 237 260 193 413 -8 28 -16 59 -19 70 -3 15 16
41 72 100 42 44 145 152 228 239 83 87 201 210 261 273 61 63 113 121 117 128
6 10 21 7 70 -13 104 -42 234 -33 348 24 19 10 41 24 48 31 35 35 47 33 128
-19 43 -28 81 -55 82 -60 2 -4 9 -8 15 -8 7 0 24 -10 39 -23 14 -12 39 -29 55
-38 27 -16 408 -270 428 -286 6 -4 84 -57 175 -117 91 -61 167 -113 168 -118
2 -4 8 -8 12 -8 8 0 91 -52 115 -73 6 -4 43 -30 83 -56 39 -26 70 -50 67 -53
-12 -11 -18 -65 -17 -128 4 -130 69 -239 184 -307 137 -81 337 -56 440 54 58
62 68 73 63 73 -3 0 4 17 15 38 48 93 44 245 -9 332 -103 170 -293 238 -465
166 l-39 -16 -71 47 c-39 27 -75 51 -81 56 -5 4 -32 22 -60 40 -27 18 -183
123 -345 232 -162 109 -376 253 -475 319 -99 67 -181 124 -183 129 -2 4 -8 7
-14 7 -9 0 -90 53 -114 75 -6 6 -9 37 -8 72 9 250 -181 455 -429 462 -23 1
-31 9 -48 49 -12 26 -22 52 -23 57 -1 6 -4 15 -8 20 -3 6 -18 42 -33 80 -15
39 -33 84 -41 100 -17 39 -73 180 -90 225 -7 19 -42 107 -78 194 -36 88 -66
165 -66 170 0 6 13 23 29 38 37 37 87 139 104 213 17 78 14 168 -10 264 -19
75 -147 238 -201 255 -12 4 -22 12 -22 17 0 5 -4 9 -9 9 -5 0 -26 8 -47 17
-44 19 -44 19 -99 29 -152 28 -314 -20 -422 -125 -42 -40 -48 -43 -87 -38 -22
3 -52 8 -66 12 -14 3 -36 8 -50 11 -23 4 -47 9 -95 18 -11 3 -55 12 -98 21
-43 9 -91 18 -105 20 -15 2 -39 8 -53 13 -15 6 -29 9 -32 6 -2 -2 -15 0 -28 5
-13 4 -43 11 -67 15 -24 3 -62 10 -84 16 -22 6 -47 9 -55 6 -9 -4 -11 -2 -7 5
4 7 1 10 -7 7 -8 -3 -24 -1 -37 3 -12 5 -50 14 -85 20 -85 15 -99 17 -122 23
-25 6 -222 46 -255 52 -14 2 -45 9 -70 14 -25 5 -56 12 -70 15 -14 2 -47 10
-75 16 -27 6 -65 12 -83 14 -18 2 -37 7 -42 10 -6 4 -23 8 -38 10 -15 3 -38 7
-52 10 -14 4 -40 8 -58 10 -18 2 -42 7 -53 10 -10 4 -31 9 -46 11 -16 3 -92
18 -169 35 -78 16 -144 29 -146 29 -2 0 -5 19 -6 43 -3 46 -17 132 -22 132 -1
0 -3 9 -5 20 -2 10 -12 36 -21 58 l-17 38 1180 1180 c650 649 1183 1176 1185
1172 4 -11 116 -83 128 -83 5 0 10 -5 10 -10 0 -6 3 -9 8 -8 4 1 32 -7 62 -19
155 -58 354 -41 513 44 l47 26 610 -611 c336 -336 610 -613 610 -617 0 -3 -7
-22 -16 -43 -34 -78 -17 -225 38 -334 37 -76 137 -158 238 -195 32 -12 184
-19 220 -11 191 47 331 219 331 407 0 36 -3 77 -5 90 -37 177 -185 315 -360
337 -22 3 -42 6 -45 7 -22 5 -139 -18 -177 -34 l-46 -21 -604 606 c-332 333
-604 610 -604 615 0 5 13 36 30 69 33 67 48 125 56 215 6 79 9 86 31 82 10 -1
23 1 28 6 6 4 32 10 59 14 27 3 52 7 56 10 3 2 22 7 41 10 19 3 53 10 75 15
23 5 56 12 75 15 19 2 88 16 154 30 66 14 131 27 144 30 22 4 77 15 151 30 14
3 40 8 59 10 18 3 36 7 40 10 4 2 22 7 39 10 66 11 88 15 112 21 14 3 32 7 40
8 8 2 29 6 45 9 17 4 41 9 55 11 14 3 36 8 50 11 14 3 37 7 53 10 15 3 60 12
100 21 100 21 110 23 143 27 17 2 34 6 39 9 6 3 30 9 55 12 25 3 61 10 80 16
59 17 86 13 105 -17 129 -200 436 -210 588 -20 60 75 85 149 82 244 -5 165
-138 325 -291 349 -139 22 -246 -9 -335 -97 -38 -38 -88 -116 -98 -151 -7 -27
-15 -37 -29 -37 -9 0 -24 -1 -32 -4 -8 -2 -37 -8 -65 -12 -57 -10 -64 -12 -67
-15 -4 -2 -34 -8 -73 -14 -16 -3 -41 -8 -55 -11 -33 -7 -80 -16 -105 -21 -20
-3 -49 -9 -92 -19 -54 -12 -69 -15 -107 -21 -22 -3 -43 -7 -46 -9 -3 -2 -24
-6 -46 -9 -23 -4 -55 -11 -73 -16 -17 -5 -34 -9 -36 -9 -3 0 -18 -2 -33 -5
-15 -3 -38 -8 -52 -10 -14 -3 -72 -14 -130 -26 -58 -12 -118 -24 -135 -27 -41
-7 -60 -11 -60 -13 0 -1 -11 -3 -25 -5 -14 -2 -81 -15 -149 -29 -68 -15 -140
-29 -160 -32 -20 -3 -38 -7 -41 -9 -3 -2 -23 -6 -45 -9 -22 -4 -65 -12 -95
-19 -78 -18 -89 -16 -108 18 -9 17 -23 34 -29 38 -7 4 -13 12 -13 17 0 13 -84
98 -130 132 -43 32 -151 88 -182 93 -71 14 -78 17 -79 38 -2 46 -7 170 -13
362 -4 110 -9 250 -11 311 -5 114 -1 127 34 136 61 14 188 178 208 268 11 54
7 208 -7 225 -7 8 -9 15 -6 15 11 0 -50 105 -81 140 -45 52 -111 98 -171 120
-63 24 -175 33 -237 19z"/>
</g>
</svg>
